<?xml version="1.0" encoding="utf-8" ?>
<!-- Generator: Adobe Illustrator 24.2.1, SVG Export Plug-In . SVG Version: 6.00 Build 0)  -->
<svg
  version="1.1"
  id="Layer_1"
  xmlns="http://www.w3.org/2000/svg"
  xmlns:xlink="http://www.w3.org/1999/xlink"
  x="0px"
  y="0px"
  viewBox="0 0 594.6 190.4"
  style="enable-background:new 0 0 594.6 190.4;"
  xml:space="preserve"
>
<style type="text/css">
.st0 {
  fill: #23274f;
}
.st1 {
  fill: #60c2d3;
}
  </style>
<path id="path35166" class="st0" d="M0,0L0,0h2.8v79.4H0V0z" />
<path id="path35176" class="st1" d="M23,0L23,0h23.8v79.4H23V0z" />
<path id="path35186" class="st0" d="M64.8,0L64.8,0h11.8v79.4H64.8V0z" />
<path
    id="path35196"
    class="st0"
    d="M338.4,60.2L338.4,60.2c-17,0-23.4,7.1-25.9,9.8l-3.9-8h-31.2v17.5h7.3v111h24.5v-42.5
	c5,4.6,13.1,8,23.1,8c32.4,0,45.6-23.6,45.6-50.1C377.9,78.9,361.7,60.2,338.4,60.2L338.4,60.2z M353.2,106.8L353.2,106.8
	c0,18.7-9,29.9-23.8,29.9c-14.5,0-21.1-9.1-21.1-28.7c0-20.2,6.6-28.8,22-28.8C344.2,79.2,353.2,90.1,353.2,106.8L353.2,106.8z
	 M563.9,112.8L563.9,112.8v1.6c0,11.3-2.5,24.4-21.2,24.4c-9.1,0-14.8-5-14.8-12.9c0-6.8,2.7-13.1,22.5-13.1L563.9,112.8z
	 M587.8,136.5L587.8,136.5V90.2c0-20.2-12.9-30.1-39.5-30.1c-6.9,0-17.9,0.8-20.9,1.1v18.3c0,0,12.9-0.9,20.3-0.9
	c10.9,0,16,3.9,16,12.1v6h-15.4c-29.9,0-45,10.2-45,30.6c0,13.4,8.5,28.5,32.6,28.5c18.9,0,26.6-6,29-8.8l3.5,7.2l26.3-0.2v-17.5
	L587.8,136.5z M82.9,98L82.9,98c0,24.3,11.2,38.9,29.7,38.9c11.5,0,19.5-4.7,24.5-16.1h27.5c-5,17.6-18.2,35.9-52.7,35.9
	c-35.2,0-56.2-21.6-56.2-58c0-16.2,5.3-31,14.9-41.7c10.4-11.3,25-17.3,42.3-17.3c40.7,0,52.1,28.8,52.1,39.7H138
	c-2.2-10.1-8.2-19.7-25.2-19.7C94.4,59.7,82.9,74.3,82.9,98z M234.7,112.8L234.7,112.8v1.6c0,11.3-2.3,24.4-21.1,24.4
	c-9.1,0-15-5-15-12.9c0-6.8,2.8-13.1,22.5-13.1L234.7,112.8z M258.8,136.5L258.8,136.5V90.2c0-20.2-12.9-30.1-39.5-30.1
	c-6.9,0-17.9,0.8-20.9,1.1v18.3c0,0,12.9-0.9,20.3-0.9c10.9,0,16,3.9,16,12.1v6h-15.4c-29.9,0-45,10.2-45,30.6
	c0,13.4,8.5,28.5,32.4,28.5c19,0,26.7-6,28.9-8.8l3.6,7.2l26.3-0.2v-17.5L258.8,136.5z M473.6,61.9L473.6,61.9h19.4v17.5h-19.4v47.1
	c0,7.1,1.6,11,10.4,11c3.1,0,5-0.2,6.4-0.3V154c-4.2,1.4-10.2,1.9-16.8,1.9c-17.3,0-24.7-7.9-24.7-26V79.4h-7.1V61.9h7.1V46.5h24.7
	L473.6,61.9z M396.5,23L396.5,23H421v26h-24.5V23z M389.9,61.9L389.9,61.9H421v92.3h-24.5V79.4h-6.6V61.9z"
  />
</svg>
