<?xml version="1.0" encoding="iso-8859-1" ?>
<!-- Uploaded to: SVG Repo, www.svgrepo.com, Generator: SVG Repo Mixer Tools -->
<svg
  fill="#000000"
  height="800px"
  width="800px"
  version="1.1"
  id="Capa_1"
  xmlns="http://www.w3.org/2000/svg"
  xmlns:xlink="http://www.w3.org/1999/xlink"
  viewBox="0 0 488.7 488.7"
  xml:space="preserve"
>
<g>
	<g>
		<g>
			<path
          d="M328.6,189.45v-23.7c0-5-2.2-9.8-6.1-13c-21.4-17.6-44.6-29.3-49.3-31.6c-0.5-0.3-0.9-0.8-0.9-1.4v-33.3
				c4.2-2.8,7-7.6,7-13v-34.6c0-17.2-14-31.2-31.2-31.2h-3.7h-3.7c-17.2,0-31.2,14-31.2,31.2v34.6c0,5.4,2.8,10.2,7,13v33.4
				c0,0.6-0.3,1.1-0.9,1.4c-4.7,2.3-27.8,14-49.3,31.6c-3.9,3.2-6.1,7.9-6.1,13v23.7h84.2h84.2V189.45z"
        />
		</g>
		<g>
			<path
          d="M482.6,444.35c-21.4-17.6-44.6-29.3-49.3-31.6c-0.5-0.3-0.9-0.8-0.9-1.4v-33.4c4.2-2.8,7-7.6,7-13v-34.6
				c0-17.2-14-31.2-31.2-31.2h-3.7h-3.7c-17.2,0-31.2,14-31.2,31.2v34.6c0,5.4,2.8,10.2,7,13v33.4c0,0.6-0.3,1.1-0.9,1.4
				c-4.7,2.3-27.8,14-49.3,31.6c-3.9,3.2-6.1,7.9-6.1,13v23.7h84.2h84.2v-23.7C488.7,452.35,486.5,447.55,482.6,444.35z"
        />
		</g>
		<g>
			<path
          d="M162.3,444.35c-21.4-17.6-44.6-29.3-49.3-31.6c-0.5-0.3-0.9-0.8-0.9-1.4v-33.4c4.2-2.8,7-7.6,7-13v-34.6
				c0-17.2-14-31.2-31.2-31.2h-3.7h-3.7c-17.2,0-31.2,14-31.2,31.2v34.6c0,5.4,2.8,10.2,7,13v33.4c0,0.6-0.3,1.1-0.9,1.4
				c-4.7,2.3-27.8,14-49.3,31.6c-3.9,3.2-6.1,7.9-6.1,13v23.7h84.2h84.2v-23.7C168.4,452.35,166.2,447.55,162.3,444.35z"
        />
		</g>
		<g>
			<path
          d="M244.4,248.75c-6.2,0-11.2,5-11.2,11.2c0,6.2,5,11.3,11.2,11.3c6.2,0,11.2-5,11.2-11.3
				C255.6,253.75,250.6,248.75,244.4,248.75z"
        />
		</g>
		<g>
			<circle cx="244.4" cy="292.85" r="11.2" />
		</g>
		<g>
			<circle cx="244.4" cy="325.65" r="11.2" />
		</g>
		<g>
			<path
          d="M244.4,215.85c-3,0-5.9,1.2-8,3.3s-3.3,5-3.3,8s1.2,5.9,3.3,8s5,3.3,8,3.3s5.9-1.2,8-3.3s3.3-5,3.3-8s-1.2-5.9-3.3-8
				C250.3,217.05,247.4,215.85,244.4,215.85z"
        />
		</g>
		<g>
			<path
          d="M278.1,334.05c-5.2-3.4-12.2-1.9-15.5,3.4c-3.4,5.2-1.9,12.2,3.3,15.5c5.2,3.4,12.2,1.9,15.6-3.3
				C284.8,344.35,283.3,337.45,278.1,334.05z"
        />
		</g>
		<g>
			<circle cx="299.6" cy="361.35" r="11.2" />
		</g>
		<g>
			<circle cx="327.2" cy="379.15" r="11.2" />
		</g>
		<g>
			<path
          d="M210.7,334.05c-5.2,3.4-6.7,10.3-3.4,15.6c3.4,5.2,10.3,6.7,15.6,3.3c5.2-3.4,6.7-10.3,3.3-15.5
				C222.9,332.15,215.9,330.65,210.7,334.05z"
        />
		</g>
		<g>
			<circle cx="189.2" cy="361.35" r="11.2" />
		</g>
		<g>
			<circle cx="161.6" cy="379.15" r="11.2" />
		</g>
	</g>
</g>
</svg>
